# Blender v3.0.0 OBJ File: ''
# www.blender.org
o Cylinder
v 0.000000 0.000000 1.000000
v 0.000000 0.000000 -1.000000
v 1.000000 0.000000 1.000000
v 1.000000 0.000000 -1.000000
v 0.995185 0.098017 1.000000
v 0.995185 0.098017 -1.000000
v 0.980785 0.195090 1.000000
v 0.980785 0.195090 -1.000000
v 0.956940 0.290285 1.000000
v 0.956940 0.290285 -1.000000
v 0.923880 0.382683 1.000000
v 0.923880 0.382683 -1.000000
v 0.881921 0.471397 1.000000
v 0.881921 0.471397 -1.000000
v 0.831470 0.555570 1.000000
v 0.831470 0.555570 -1.000000
v 0.773010 0.634393 1.000000
v 0.773010 0.634393 -1.000000
v 0.707107 0.707107 1.000000
v 0.707107 0.707107 -1.000000
v 0.634393 0.773010 1.000000
v 0.634393 0.773010 -1.000000
v 0.555570 0.831470 1.000000
v 0.555570 0.831470 -1.000000
v 0.471397 0.881921 1.000000
v 0.471397 0.881921 -1.000000
v 0.382683 0.923880 1.000000
v 0.382683 0.923880 -1.000000
v 0.290285 0.956940 1.000000
v 0.290285 0.956940 -1.000000
v 0.195090 0.980785 1.000000
v 0.195090 0.980785 -1.000000
v 0.098017 0.995185 1.000000
v 0.098017 0.995185 -1.000000
v -0.000000 1.000000 1.000000
v -0.000000 1.000000 -1.000000
v -0.098017 0.995185 1.000000
v -0.098017 0.995185 -1.000000
v -0.195090 0.980785 1.000000
v -0.195090 0.980785 -1.000000
v -0.290285 0.956940 1.000000
v -0.290285 0.956940 -1.000000
v -0.382683 0.923880 1.000000
v -0.382683 0.923880 -1.000000
v -0.471397 0.881921 1.000000
v -0.471397 0.881921 -1.000000
v -0.555570 0.831470 1.000000
v -0.555570 0.831470 -1.000000
v -0.634393 0.773010 1.000000
v -0.634393 0.773010 -1.000000
v -0.707107 0.707107 1.000000
v -0.707107 0.707107 -1.000000
v -0.773010 0.634393 1.000000
v -0.773010 0.634393 -1.000000
v -0.831470 0.555570 1.000000
v -0.831470 0.555570 -1.000000
v -0.881921 0.471397 1.000000
v -0.881921 0.471397 -1.000000
v -0.923880 0.382683 1.000000
v -0.923880 0.382683 -1.000000
v -0.956940 0.290285 1.000000
v -0.956940 0.290285 -1.000000
v -0.980785 0.195090 1.000000
v -0.980785 0.195090 -1.000000
v -0.995185 0.098017 1.000000
v -0.995185 0.098017 -1.000000
v -1.000000 -0.000000 1.000000
v -1.000000 -0.000000 -1.000000
v -0.995185 -0.098017 1.000000
v -0.995185 -0.098017 -1.000000
v -0.980785 -0.195090 1.000000
v -0.980785 -0.195090 -1.000000
v -0.956940 -0.290285 1.000000
v -0.956940 -0.290285 -1.000000
v -0.923880 -0.382683 1.000000
v -0.923880 -0.382683 -1.000000
v -0.881921 -0.471397 1.000000
v -0.881921 -0.471397 -1.000000
v -0.831470 -0.555570 1.000000
v -0.831470 -0.555570 -1.000000
v -0.773011 -0.634393 1.000000
v -0.773011 -0.634393 -1.000000
v -0.707107 -0.707107 1.000000
v -0.707107 -0.707107 -1.000000
v -0.634393 -0.773010 1.000000
v -0.634393 -0.773010 -1.000000
v -0.555570 -0.831469 1.000000
v -0.555570 -0.831469 -1.000000
v -0.471397 -0.881921 1.000000
v -0.471397 -0.881921 -1.000000
v -0.382684 -0.923880 1.000000
v -0.382684 -0.923880 -1.000000
v -0.290285 -0.956940 1.000000
v -0.290285 -0.956940 -1.000000
v -0.195090 -0.980785 1.000000
v -0.195090 -0.980785 -1.000000
v -0.098017 -0.995185 1.000000
v -0.098017 -0.995185 -1.000000
v 0.000000 -1.000000 1.000000
v 0.000000 -1.000000 -1.000000
v 0.098017 -0.995185 1.000000
v 0.098017 -0.995185 -1.000000
v 0.195090 -0.980785 1.000000
v 0.195090 -0.980785 -1.000000
v 0.290285 -0.956940 1.000000
v 0.290285 -0.956940 -1.000000
v 0.382684 -0.923879 1.000000
v 0.382684 -0.923879 -1.000000
v 0.471397 -0.881921 1.000000
v 0.471397 -0.881921 -1.000000
v 0.555570 -0.831470 1.000000
v 0.555570 -0.831470 -1.000000
v 0.634393 -0.773010 1.000000
v 0.634393 -0.773010 -1.000000
v 0.707107 -0.707107 1.000000
v 0.707107 -0.707107 -1.000000
v 0.773011 -0.634393 1.000000
v 0.773011 -0.634393 -1.000000
v 0.831470 -0.555570 1.000000
v 0.831470 -0.555570 -1.000000
v 0.881921 -0.471397 1.000000
v 0.881921 -0.471397 -1.000000
v 0.923880 -0.382683 1.000000
v 0.923880 -0.382683 -1.000000
v 0.956940 -0.290285 1.000000
v 0.956940 -0.290285 -1.000000
v 0.980785 -0.195090 1.000000
v 0.980785 -0.195090 -1.000000
v 0.995185 -0.098017 1.000000
v 0.995185 -0.098017 -1.000000
vt 0.750000 0.250000
vt 0.750000 0.490000
vt 0.773524 0.488844
vt 0.250000 0.250000
vt 0.273524 0.488844
vt 0.250000 0.490000
vt 1.000000 1.000000
vt 0.984375 0.500000
vt 1.000000 0.500000
vt 0.796822 0.485388
vt 0.296822 0.485388
vt 0.984375 1.000000
vt 0.968750 0.500000
vt 0.819668 0.479666
vt 0.319668 0.479666
vt 0.968750 1.000000
vt 0.953125 0.500000
vt 0.841844 0.471731
vt 0.341844 0.471731
vt 0.953125 1.000000
vt 0.937500 0.500000
vt 0.863135 0.461661
vt 0.363135 0.461661
vt 0.937500 1.000000
vt 0.921875 0.500000
vt 0.883337 0.449553
vt 0.383337 0.449553
vt 0.921875 1.000000
vt 0.906250 0.500000
vt 0.902254 0.435522
vt 0.402254 0.435522
vt 0.906250 1.000000
vt 0.890625 0.500000
vt 0.919706 0.419706
vt 0.419706 0.419706
vt 0.890625 1.000000
vt 0.875000 0.500000
vt 0.935522 0.402254
vt 0.435522 0.402254
vt 0.875000 1.000000
vt 0.859375 0.500000
vt 0.949553 0.383337
vt 0.449553 0.383337
vt 0.859375 1.000000
vt 0.843750 0.500000
vt 0.961661 0.363135
vt 0.461661 0.363135
vt 0.843750 1.000000
vt 0.828125 0.500000
vt 0.971731 0.341844
vt 0.471731 0.341844
vt 0.828125 1.000000
vt 0.812500 0.500000
vt 0.979666 0.319668
vt 0.479666 0.319668
vt 0.812500 1.000000
vt 0.796875 0.500000
vt 0.985388 0.296822
vt 0.485388 0.296822
vt 0.796875 1.000000
vt 0.781250 0.500000
vt 0.988844 0.273524
vt 0.488844 0.273524
vt 0.781250 1.000000
vt 0.765625 0.500000
vt 0.990000 0.250000
vt 0.490000 0.250000
vt 0.765625 1.000000
vt 0.750000 0.500000
vt 0.988844 0.226476
vt 0.488844 0.226476
vt 0.750000 1.000000
vt 0.734375 0.500000
vt 0.985388 0.203178
vt 0.485388 0.203178
vt 0.734375 1.000000
vt 0.718750 0.500000
vt 0.979666 0.180332
vt 0.479666 0.180332
vt 0.718750 1.000000
vt 0.703125 0.500000
vt 0.971731 0.158156
vt 0.471731 0.158156
vt 0.703125 1.000000
vt 0.687500 0.500000
vt 0.961661 0.136865
vt 0.461661 0.136865
vt 0.687500 1.000000
vt 0.671875 0.500000
vt 0.949553 0.116663
vt 0.449553 0.116663
vt 0.671875 1.000000
vt 0.656250 0.500000
vt 0.935522 0.097746
vt 0.435522 0.097746
vt 0.656250 1.000000
vt 0.640625 0.500000
vt 0.919706 0.080294
vt 0.419706 0.080294
vt 0.640625 1.000000
vt 0.625000 0.500000
vt 0.902254 0.064477
vt 0.402254 0.064477
vt 0.625000 1.000000
vt 0.609375 0.500000
vt 0.883337 0.050447
vt 0.383337 0.050447
vt 0.609375 1.000000
vt 0.593750 0.500000
vt 0.863135 0.038339
vt 0.363135 0.038339
vt 0.593750 1.000000
vt 0.578125 0.500000
vt 0.841844 0.028269
vt 0.341844 0.028269
vt 0.578125 1.000000
vt 0.562500 0.500000
vt 0.819668 0.020334
vt 0.319668 0.020334
vt 0.562500 1.000000
vt 0.546875 0.500000
vt 0.796822 0.014612
vt 0.296822 0.014612
vt 0.546875 1.000000
vt 0.531250 0.500000
vt 0.773524 0.011156
vt 0.273524 0.011156
vt 0.531250 1.000000
vt 0.515625 0.500000
vt 0.750000 0.010000
vt 0.250000 0.010000
vt 0.515625 1.000000
vt 0.500000 0.500000
vt 0.726476 0.011156
vt 0.226476 0.011156
vt 0.500000 1.000000
vt 0.484375 0.500000
vt 0.703178 0.014612
vt 0.203178 0.014612
vt 0.484375 1.000000
vt 0.468750 0.500000
vt 0.680332 0.020334
vt 0.180332 0.020334
vt 0.468750 1.000000
vt 0.453125 0.500000
vt 0.658156 0.028269
vt 0.158156 0.028269
vt 0.453125 1.000000
vt 0.437500 0.500000
vt 0.636865 0.038339
vt 0.136865 0.038339
vt 0.437500 1.000000
vt 0.421875 0.500000
vt 0.616663 0.050447
vt 0.116663 0.050447
vt 0.421875 1.000000
vt 0.406250 0.500000
vt 0.597746 0.064477
vt 0.097746 0.064477
vt 0.406250 1.000000
vt 0.390625 0.500000
vt 0.580294 0.080294
vt 0.080294 0.080294
vt 0.390625 1.000000
vt 0.375000 0.500000
vt 0.564478 0.097746
vt 0.064478 0.097746
vt 0.375000 1.000000
vt 0.359375 0.500000
vt 0.550447 0.116663
vt 0.050447 0.116663
vt 0.359375 1.000000
vt 0.343750 0.500000
vt 0.538339 0.136865
vt 0.038339 0.136865
vt 0.343750 1.000000
vt 0.328125 0.500000
vt 0.528269 0.158156
vt 0.028269 0.158156
vt 0.328125 1.000000
vt 0.312500 0.500000
vt 0.520334 0.180332
vt 0.020334 0.180332
vt 0.312500 1.000000
vt 0.296875 0.500000
vt 0.514612 0.203178
vt 0.014612 0.203178
vt 0.296875 1.000000
vt 0.281250 0.500000
vt 0.511156 0.226476
vt 0.011156 0.226476
vt 0.281250 1.000000
vt 0.265625 0.500000
vt 0.510000 0.250000
vt 0.010000 0.250000
vt 0.265625 1.000000
vt 0.250000 0.500000
vt 0.511156 0.273524
vt 0.011156 0.273524
vt 0.250000 1.000000
vt 0.234375 0.500000
vt 0.514612 0.296822
vt 0.014612 0.296822
vt 0.234375 1.000000
vt 0.218750 0.500000
vt 0.520334 0.319668
vt 0.020334 0.319668
vt 0.218750 1.000000
vt 0.203125 0.500000
vt 0.528269 0.341844
vt 0.028269 0.341844
vt 0.203125 1.000000
vt 0.187500 0.500000
vt 0.538339 0.363135
vt 0.038339 0.363135
vt 0.187500 1.000000
vt 0.171875 0.500000
vt 0.550447 0.383337
vt 0.050447 0.383337
vt 0.171875 1.000000
vt 0.156250 0.500000
vt 0.564478 0.402254
vt 0.064478 0.402254
vt 0.156250 1.000000
vt 0.140625 0.500000
vt 0.580294 0.419706
vt 0.080294 0.419706
vt 0.140625 1.000000
vt 0.125000 0.500000
vt 0.597746 0.435523
vt 0.097746 0.435523
vt 0.125000 1.000000
vt 0.109375 0.500000
vt 0.616663 0.449553
vt 0.116663 0.449553
vt 0.109375 1.000000
vt 0.093750 0.500000
vt 0.636865 0.461661
vt 0.136865 0.461661
vt 0.093750 1.000000
vt 0.078125 0.500000
vt 0.658156 0.471731
vt 0.158156 0.471731
vt 0.078125 1.000000
vt 0.062500 0.500000
vt 0.680332 0.479666
vt 0.180332 0.479666
vt 0.062500 1.000000
vt 0.046875 0.500000
vt 0.703178 0.485388
vt 0.203178 0.485388
vt 0.046875 1.000000
vt 0.031250 0.500000
vt 0.726476 0.488844
vt 0.226476 0.488844
vt 0.031250 1.000000
vt 0.015625 0.500000
vt 0.015625 1.000000
vt 0.000000 0.500000
vt 0.000000 1.000000
vn 0.0000 0.0000 1.0000
vn 0.0000 0.0000 -1.0000
vn 0.9988 0.0491 0.0000
vn 0.9892 0.1467 0.0000
vn 0.9700 0.2430 0.0000
vn 0.9415 0.3369 0.0000
vn 0.9040 0.4276 0.0000
vn 0.8577 0.5141 0.0000
vn 0.8032 0.5957 0.0000
vn 0.7410 0.6716 0.0000
vn 0.6716 0.7410 0.0000
vn 0.5957 0.8032 0.0000
vn 0.5141 0.8577 0.0000
vn 0.4276 0.9040 0.0000
vn 0.3369 0.9415 0.0000
vn 0.2430 0.9700 0.0000
vn 0.1467 0.9892 0.0000
vn 0.0491 0.9988 0.0000
vn -0.0491 0.9988 0.0000
vn -0.1467 0.9892 0.0000
vn -0.2430 0.9700 0.0000
vn -0.3369 0.9415 0.0000
vn -0.4276 0.9040 0.0000
vn -0.5141 0.8577 0.0000
vn -0.5957 0.8032 0.0000
vn -0.6716 0.7410 0.0000
vn -0.7410 0.6716 0.0000
vn -0.8032 0.5957 0.0000
vn -0.8577 0.5141 0.0000
vn -0.9040 0.4276 0.0000
vn -0.9415 0.3369 0.0000
vn -0.9700 0.2430 0.0000
vn -0.9892 0.1467 0.0000
vn -0.9988 0.0491 0.0000
vn -0.9988 -0.0491 0.0000
vn -0.9892 -0.1467 0.0000
vn -0.9700 -0.2430 0.0000
vn -0.9415 -0.3369 0.0000
vn -0.9040 -0.4276 0.0000
vn -0.8577 -0.5141 0.0000
vn -0.8032 -0.5957 0.0000
vn -0.7410 -0.6716 0.0000
vn -0.6716 -0.7410 0.0000
vn -0.5957 -0.8032 0.0000
vn -0.5141 -0.8577 0.0000
vn -0.4276 -0.9040 0.0000
vn -0.3369 -0.9415 0.0000
vn -0.2430 -0.9700 0.0000
vn -0.1467 -0.9892 0.0000
vn -0.0491 -0.9988 0.0000
vn 0.0491 -0.9988 0.0000
vn 0.1467 -0.9892 0.0000
vn 0.2430 -0.9700 0.0000
vn 0.3369 -0.9415 0.0000
vn 0.4276 -0.9040 0.0000
vn 0.5141 -0.8577 0.0000
vn 0.5957 -0.8032 0.0000
vn 0.6716 -0.7410 0.0000
vn 0.7410 -0.6716 0.0000
vn 0.8032 -0.5957 0.0000
vn 0.8577 -0.5141 0.0000
vn 0.9040 -0.4276 0.0000
vn 0.9415 -0.3369 0.0000
vn 0.9700 -0.2430 0.0000
vn 0.9892 -0.1467 0.0000
vn 0.9988 -0.0491 0.0000
s off
f 1/1/1 3/2/1 5/3/1
f 2/4/2 6/5/2 4/6/2
f 4/7/3 5/8/3 3/9/3
f 1/1/1 5/3/1 7/10/1
f 2/4/2 8/11/2 6/5/2
f 6/12/4 7/13/4 5/8/4
f 1/1/1 7/10/1 9/14/1
f 2/4/2 10/15/2 8/11/2
f 8/16/5 9/17/5 7/13/5
f 1/1/1 9/14/1 11/18/1
f 2/4/2 12/19/2 10/15/2
f 10/20/6 11/21/6 9/17/6
f 1/1/1 11/18/1 13/22/1
f 2/4/2 14/23/2 12/19/2
f 12/24/7 13/25/7 11/21/7
f 1/1/1 13/22/1 15/26/1
f 2/4/2 16/27/2 14/23/2
f 14/28/8 15/29/8 13/25/8
f 1/1/1 15/26/1 17/30/1
f 2/4/2 18/31/2 16/27/2
f 16/32/9 17/33/9 15/29/9
f 1/1/1 17/30/1 19/34/1
f 2/4/2 20/35/2 18/31/2
f 18/36/10 19/37/10 17/33/10
f 1/1/1 19/34/1 21/38/1
f 2/4/2 22/39/2 20/35/2
f 20/40/11 21/41/11 19/37/11
f 1/1/1 21/38/1 23/42/1
f 2/4/2 24/43/2 22/39/2
f 22/44/12 23/45/12 21/41/12
f 1/1/1 23/42/1 25/46/1
f 2/4/2 26/47/2 24/43/2
f 24/48/13 25/49/13 23/45/13
f 1/1/1 25/46/1 27/50/1
f 2/4/2 28/51/2 26/47/2
f 26/52/14 27/53/14 25/49/14
f 1/1/1 27/50/1 29/54/1
f 2/4/2 30/55/2 28/51/2
f 28/56/15 29/57/15 27/53/15
f 1/1/1 29/54/1 31/58/1
f 2/4/2 32/59/2 30/55/2
f 30/60/16 31/61/16 29/57/16
f 1/1/1 31/58/1 33/62/1
f 2/4/2 34/63/2 32/59/2
f 32/64/17 33/65/17 31/61/17
f 1/1/1 33/62/1 35/66/1
f 2/4/2 36/67/2 34/63/2
f 34/68/18 35/69/18 33/65/18
f 1/1/1 35/66/1 37/70/1
f 2/4/2 38/71/2 36/67/2
f 36/72/19 37/73/19 35/69/19
f 1/1/1 37/70/1 39/74/1
f 2/4/2 40/75/2 38/71/2
f 38/76/20 39/77/20 37/73/20
f 1/1/1 39/74/1 41/78/1
f 2/4/2 42/79/2 40/75/2
f 40/80/21 41/81/21 39/77/21
f 1/1/1 41/78/1 43/82/1
f 2/4/2 44/83/2 42/79/2
f 42/84/22 43/85/22 41/81/22
f 1/1/1 43/82/1 45/86/1
f 2/4/2 46/87/2 44/83/2
f 44/88/23 45/89/23 43/85/23
f 1/1/1 45/86/1 47/90/1
f 2/4/2 48/91/2 46/87/2
f 46/92/24 47/93/24 45/89/24
f 1/1/1 47/90/1 49/94/1
f 2/4/2 50/95/2 48/91/2
f 48/96/25 49/97/25 47/93/25
f 1/1/1 49/94/1 51/98/1
f 2/4/2 52/99/2 50/95/2
f 50/100/26 51/101/26 49/97/26
f 1/1/1 51/98/1 53/102/1
f 2/4/2 54/103/2 52/99/2
f 52/104/27 53/105/27 51/101/27
f 1/1/1 53/102/1 55/106/1
f 2/4/2 56/107/2 54/103/2
f 54/108/28 55/109/28 53/105/28
f 1/1/1 55/106/1 57/110/1
f 2/4/2 58/111/2 56/107/2
f 56/112/29 57/113/29 55/109/29
f 1/1/1 57/110/1 59/114/1
f 2/4/2 60/115/2 58/111/2
f 58/116/30 59/117/30 57/113/30
f 1/1/1 59/114/1 61/118/1
f 2/4/2 62/119/2 60/115/2
f 60/120/31 61/121/31 59/117/31
f 1/1/1 61/118/1 63/122/1
f 2/4/2 64/123/2 62/119/2
f 62/124/32 63/125/32 61/121/32
f 1/1/1 63/122/1 65/126/1
f 2/4/2 66/127/2 64/123/2
f 64/128/33 65/129/33 63/125/33
f 1/1/1 65/126/1 67/130/1
f 2/4/2 68/131/2 66/127/2
f 66/132/34 67/133/34 65/129/34
f 1/1/1 67/130/1 69/134/1
f 2/4/2 70/135/2 68/131/2
f 68/136/35 69/137/35 67/133/35
f 1/1/1 69/134/1 71/138/1
f 2/4/2 72/139/2 70/135/2
f 70/140/36 71/141/36 69/137/36
f 1/1/1 71/138/1 73/142/1
f 2/4/2 74/143/2 72/139/2
f 72/144/37 73/145/37 71/141/37
f 1/1/1 73/142/1 75/146/1
f 2/4/2 76/147/2 74/143/2
f 74/148/38 75/149/38 73/145/38
f 1/1/1 75/146/1 77/150/1
f 2/4/2 78/151/2 76/147/2
f 76/152/39 77/153/39 75/149/39
f 1/1/1 77/150/1 79/154/1
f 2/4/2 80/155/2 78/151/2
f 78/156/40 79/157/40 77/153/40
f 1/1/1 79/154/1 81/158/1
f 2/4/2 82/159/2 80/155/2
f 80/160/41 81/161/41 79/157/41
f 1/1/1 81/158/1 83/162/1
f 2/4/2 84/163/2 82/159/2
f 82/164/42 83/165/42 81/161/42
f 1/1/1 83/162/1 85/166/1
f 2/4/2 86/167/2 84/163/2
f 84/168/43 85/169/43 83/165/43
f 1/1/1 85/166/1 87/170/1
f 2/4/2 88/171/2 86/167/2
f 86/172/44 87/173/44 85/169/44
f 1/1/1 87/170/1 89/174/1
f 2/4/2 90/175/2 88/171/2
f 88/176/45 89/177/45 87/173/45
f 1/1/1 89/174/1 91/178/1
f 2/4/2 92/179/2 90/175/2
f 90/180/46 91/181/46 89/177/46
f 1/1/1 91/178/1 93/182/1
f 2/4/2 94/183/2 92/179/2
f 92/184/47 93/185/47 91/181/47
f 1/1/1 93/182/1 95/186/1
f 2/4/2 96/187/2 94/183/2
f 94/188/48 95/189/48 93/185/48
f 1/1/1 95/186/1 97/190/1
f 2/4/2 98/191/2 96/187/2
f 96/192/49 97/193/49 95/189/49
f 1/1/1 97/190/1 99/194/1
f 2/4/2 100/195/2 98/191/2
f 98/196/50 99/197/50 97/193/50
f 1/1/1 99/194/1 101/198/1
f 2/4/2 102/199/2 100/195/2
f 100/200/51 101/201/51 99/197/51
f 1/1/1 101/198/1 103/202/1
f 2/4/2 104/203/2 102/199/2
f 102/204/52 103/205/52 101/201/52
f 1/1/1 103/202/1 105/206/1
f 2/4/2 106/207/2 104/203/2
f 104/208/53 105/209/53 103/205/53
f 1/1/1 105/206/1 107/210/1
f 2/4/2 108/211/2 106/207/2
f 106/212/54 107/213/54 105/209/54
f 1/1/1 107/210/1 109/214/1
f 2/4/2 110/215/2 108/211/2
f 108/216/55 109/217/55 107/213/55
f 1/1/1 109/214/1 111/218/1
f 2/4/2 112/219/2 110/215/2
f 110/220/56 111/221/56 109/217/56
f 1/1/1 111/218/1 113/222/1
f 2/4/2 114/223/2 112/219/2
f 112/224/57 113/225/57 111/221/57
f 1/1/1 113/222/1 115/226/1
f 2/4/2 116/227/2 114/223/2
f 114/228/58 115/229/58 113/225/58
f 1/1/1 115/226/1 117/230/1
f 2/4/2 118/231/2 116/227/2
f 116/232/59 117/233/59 115/229/59
f 1/1/1 117/230/1 119/234/1
f 2/4/2 120/235/2 118/231/2
f 118/236/60 119/237/60 117/233/60
f 1/1/1 119/234/1 121/238/1
f 2/4/2 122/239/2 120/235/2
f 120/240/61 121/241/61 119/237/61
f 1/1/1 121/238/1 123/242/1
f 2/4/2 124/243/2 122/239/2
f 122/244/62 123/245/62 121/241/62
f 1/1/1 123/242/1 125/246/1
f 2/4/2 126/247/2 124/243/2
f 124/248/63 125/249/63 123/245/63
f 1/1/1 125/246/1 127/250/1
f 2/4/2 128/251/2 126/247/2
f 126/252/64 127/253/64 125/249/64
f 1/1/1 127/250/1 129/254/1
f 2/4/2 130/255/2 128/251/2
f 128/256/65 129/257/65 127/253/65
f 1/1/1 129/254/1 3/2/1
f 2/4/2 4/6/2 130/255/2
f 130/258/66 3/259/66 129/257/66
f 4/7/3 6/12/3 5/8/3
f 6/12/4 8/16/4 7/13/4
f 8/16/5 10/20/5 9/17/5
f 10/20/6 12/24/6 11/21/6
f 12/24/7 14/28/7 13/25/7
f 14/28/8 16/32/8 15/29/8
f 16/32/9 18/36/9 17/33/9
f 18/36/10 20/40/10 19/37/10
f 20/40/11 22/44/11 21/41/11
f 22/44/12 24/48/12 23/45/12
f 24/48/13 26/52/13 25/49/13
f 26/52/14 28/56/14 27/53/14
f 28/56/15 30/60/15 29/57/15
f 30/60/16 32/64/16 31/61/16
f 32/64/17 34/68/17 33/65/17
f 34/68/18 36/72/18 35/69/18
f 36/72/19 38/76/19 37/73/19
f 38/76/20 40/80/20 39/77/20
f 40/80/21 42/84/21 41/81/21
f 42/84/22 44/88/22 43/85/22
f 44/88/23 46/92/23 45/89/23
f 46/92/24 48/96/24 47/93/24
f 48/96/25 50/100/25 49/97/25
f 50/100/26 52/104/26 51/101/26
f 52/104/27 54/108/27 53/105/27
f 54/108/28 56/112/28 55/109/28
f 56/112/29 58/116/29 57/113/29
f 58/116/30 60/120/30 59/117/30
f 60/120/31 62/124/31 61/121/31
f 62/124/32 64/128/32 63/125/32
f 64/128/33 66/132/33 65/129/33
f 66/132/34 68/136/34 67/133/34
f 68/136/35 70/140/35 69/137/35
f 70/140/36 72/144/36 71/141/36
f 72/144/37 74/148/37 73/145/37
f 74/148/38 76/152/38 75/149/38
f 76/152/39 78/156/39 77/153/39
f 78/156/40 80/160/40 79/157/40
f 80/160/41 82/164/41 81/161/41
f 82/164/42 84/168/42 83/165/42
f 84/168/43 86/172/43 85/169/43
f 86/172/44 88/176/44 87/173/44
f 88/176/45 90/180/45 89/177/45
f 90/180/46 92/184/46 91/181/46
f 92/184/47 94/188/47 93/185/47
f 94/188/48 96/192/48 95/189/48
f 96/192/49 98/196/49 97/193/49
f 98/196/50 100/200/50 99/197/50
f 100/200/51 102/204/51 101/201/51
f 102/204/52 104/208/52 103/205/52
f 104/208/53 106/212/53 105/209/53
f 106/212/54 108/216/54 107/213/54
f 108/216/55 110/220/55 109/217/55
f 110/220/56 112/224/56 111/221/56
f 112/224/57 114/228/57 113/225/57
f 114/228/58 116/232/58 115/229/58
f 116/232/59 118/236/59 117/233/59
f 118/236/60 120/240/60 119/237/60
f 120/240/61 122/244/61 121/241/61
f 122/244/62 124/248/62 123/245/62
f 124/248/63 126/252/63 125/249/63
f 126/252/64 128/256/64 127/253/64
f 128/256/65 130/258/65 129/257/65
f 130/258/66 4/260/66 3/259/66
